<?xml version="1.0" encoding="utf-8"?>
<!-- Generator: Adobe Illustrator 22.1.0, SVG Export Plug-In . SVG Version: 6.00 Build 0)  -->
<svg version="1.1" id="Layer_1" xmlns="http://www.w3.org/2000/svg" xmlns:xlink="http://www.w3.org/1999/xlink" x="0px" y="0px"
	 viewBox="0 0 62 62" style="enable-background:new 0 0 62 62;" xml:space="preserve">
<style type="text/css">
	.st0{fill:none;stroke:#000000;stroke-width:6;stroke-linecap:round;stroke-miterlimit:10;}
	.st1{fill-rule:evenodd;clip-rule:evenodd;fill:none;stroke:#000000;stroke-width:6;stroke-linecap:round;stroke-miterlimit:10;}
	.st2{fill:transparent;}
</style>
<g>
	<path class="st2" d="M17.6,40.5c0.3-1.7-0.3-3.5-1.5-4.7l-11-10.7l15.2-2.2c1.7-0.2,3.2-1.3,4-2.9L31,6.2L37.8,20
		c0.8,1.6,2.3,2.6,4,2.9l15.2,2.2L46,35.8c-1.2,1.2-1.8,3-1.5,4.7L47,55.6l-13.6-7.1c-0.8-0.4-1.6-0.6-2.5-0.6s-1.7,0.2-2.5,0.6
		L15,55.6L17.6,40.5z"/>
	<path d="M31,13l4.1,8.3c1.2,2.4,3.5,4.1,6.2,4.5l9.2,1.3l-6.6,6.5c-1.9,1.9-2.8,4.6-2.4,7.3l1.6,9.1l-8.2-4.3
		c-1.2-0.6-2.5-0.9-3.8-0.9s-2.7,0.3-3.8,0.9l-8.2,4.3l1.6-9.1c0.5-2.7-0.4-5.4-2.4-7.3l-6.6-6.5l9.2-1.3c2.7-0.4,5-2.1,6.2-4.5
		L31,13 M31,2.3c-0.8,0-1.6,0.4-2,1.3l-7.4,15.1c-0.3,0.7-1,1.1-1.7,1.2L3.2,22.3c-1.9,0.3-2.6,2.6-1.3,3.9L14,37.9
		c0.5,0.5,0.8,1.3,0.7,2l-2.8,16.6c-0.3,1.5,0.9,2.7,2.2,2.7c0.3,0,0.7-0.1,1.1-0.3l14.9-7.8c0.3-0.2,0.7-0.3,1.1-0.3
		s0.7,0.1,1.1,0.3L47,58.9c0.3,0.2,0.7,0.3,1.1,0.3c1.3,0,2.5-1.2,2.2-2.7L47.4,40c-0.1-0.7,0.1-1.5,0.7-2l12.1-11.7
		c1.3-1.3,0.6-3.6-1.3-3.9l-16.7-2.4c-0.7-0.1-1.4-0.6-1.7-1.2L33,3.6C32.6,2.7,31.8,2.3,31,2.3L31,2.3z"/>
</g>
</svg>
